{"title":"Sightseers.2012.BRRip XViD juggs","uid":8299274,"size":739896863,"categoryP":"video","categoryS":"movies","magnet":"?xt=urn:btih:b48ffba58914b0c0e6709a20c09fea9ca5e6ea8a&amp;dn=Sightseers.2012.BRRip+XViD+juggs&amp;tr=udp%3A%2F%2Ftracker.openbittorrent.com%3A80&amp;tr=udp%3A%2F%2Fopen.demonii.com%3A1337&amp;tr=udp%3A%2F%2Ftracker.coppersurfer.tk%3A6969&amp;tr=udp%3A%2F%2Fexodus.desync.com%3A6969","seeders":1,"leechers":0,"uploader":"juggs99","files":3,"time":1364227813,"description":"Source : 720 GECKOS(Thanks)\n &lt;a href=&quot;\nhttp://www.imdb.com/title/tt2023690/&quot; rel=&quot;nofollow&quot; target=&quot;_NEW&quot;&gt;\nhttp://www.imdb.com/title/tt2023690/&lt;/a&gt;\n\nFormat                                   : AVI\nFormat/Info                              : Audio Video Interleave\nFile size                                : 700 MiB\nDuration                                 : 1h 28mn\nOverall bit rate                         : 1 110 Kbps\nWriting library                          : VirtualDub build 32842/release\n\nVideo\nID                                       : 0\nFormat                                   : MPEG-4 Visual\nFormat profile                           : Advanced Simple@L5\nFormat settings, BVOP                    : 4\nFormat settings, QPel                    : No\nFormat settings, GMC                     : No warppoints\nFormat settings, Matrix                  : Default (H.263)\nMuxing mode                              : Packed bitstream\nCodec ID                                 : XVID\nCodec ID/Hint                            : XviD\nDuration                                 : 1h 28mn\nBit rate                                 : 973 Kbps\nWidth                                    : 640 pixels\nHeight                                   : 272 pixels\nDisplay aspect ratio                     : 2.35:1\nFrame rate                               : 23.976 fps\nColor space                              : YUV\nChroma subsampling                       : 4:2:0\nBit depth                                : 8 bits\nScan type                                : Progressive\nCompression mode                         : Lossy\nBits/(Pixel*Frame)                       : 0.233\nStream size                              : 613 MiB (88%)\nWriting library                          : XviD 64\n\nAudio\nID                                       : 1\nFormat                                   : MPEG Audio\nFormat version                           : Version 1\nFormat profile                           : Layer 3\nCodec ID                                 : 55\nCodec ID/Hint                            : MP3\nDuration                                 : 1h 28mn\nBit rate mode                            : Constant\nBit rate                                 : 128 Kbps\nChannel(s)                               : 2 channels\nSampling rate                            : 44.1 KHz\nCompression mode                         : Lossy\nStream size                              : 80.7 MiB (12%)\nAlignment                                : Split accross interleaves\nInterleave, duration                     : 42 ms (1.00 video frame)\nInterleave, preload duration             : 500 ms\nWriting library                          : LAME3.99r\nEncoding settings                        : -m s -V 4 -q 3 -lowpass 17 -b 128\n\nPlot\nChris wants to show girlfriend Tina his world, but events soon conspire against the couple and their dream caravan holiday takes a very wrong turn. \n &lt;a href=&quot;\nhttp://www.shotpix.com/images/77178670074277055816.png&quot; rel=&quot;nofollow&quot; target=&quot;_NEW&quot;&gt;\nhttp://www.shotpix.com/images/77178670074277055816.png&lt;/a&gt; &lt;a href=&quot;\nhttp://www.shotpix.com/images/66577158008723349869.png&quot; rel=&quot;nofollow&quot; target=&quot;_NEW&quot;&gt;\nhttp://www.shotpix.com/images/66577158008723349869.png&lt;/a&gt; &lt;a href=&quot;\nhttp://www.shotpix.com/images/37516680468377334436.png&quot; rel=&quot;nofollow&quot; target=&quot;_NEW&quot;&gt;\nhttp://www.shotpix.com/images/37516680468377334436.png&lt;/a&gt;","torrent":{"xt":"urn:btih:b48ffba58914b0c0e6709a20c09fea9ca5e6ea8a","amp;dn":"Sightseers.2012.BRRip+XViD+juggs","amp;tr":["udp%3A%2F%2Ftracker.openbittorrent.com%3A80","udp%3A%2F%2Fopen.demonii.com%3A1337","udp%3A%2F%2Ftracker.coppersurfer.tk%3A6969","udp%3A%2F%2Fexodus.desync.com%3A6969"],"infoHash":"b48ffba58914b0c0e6709a20c09fea9ca5e6ea8a","infoHashBuffer":{"type":"Buffer","data":[180,143,251,165,137,20,176,192,230,112,154,32,192,159,234,156,165,230,234,138]},"announce":[],"urlList":[]}}